<?xml version="1.0" standalone="no"?>
<!DOCTYPE svg PUBLIC "-//W3C//DTD SVG 20010904//EN"
 "http://www.w3.org/TR/2001/REC-SVG-20010904/DTD/svg10.dtd">
<svg version="1.0" xmlns="http://www.w3.org/2000/svg"
 width="47.000000pt" height="50.000000pt" viewBox="0 0 47.000000 50.000000"
 preserveAspectRatio="xMidYMid meet">

<g transform="translate(0.000000,50.000000) scale(0.100000,-0.100000)"
fill="#000000" stroke="none">
<path d="M230 421 c-8 -6 -24 -39 -35 -73 -20 -62 -21 -63 -58 -66 -21 -2 -44
2 -51 7 -10 8 -16 8 -25 -2 -24 -30 36 -132 83 -139 21 -4 23 -9 11 -40 -10
-24 48 -33 100 -15 61 21 88 67 81 137 -12 127 -12 124 12 135 31 14 28 22
-15 41 -53 21 -85 26 -103 15z"/>
</g>
</svg>
