<?xml version="1.0" standalone="no"?>
<!DOCTYPE svg PUBLIC "-//W3C//DTD SVG 20010904//EN"
 "http://www.w3.org/TR/2001/REC-SVG-20010904/DTD/svg10.dtd">
<svg version="1.0" xmlns="http://www.w3.org/2000/svg"
 width="128.000000pt" height="128.000000pt" viewBox="0 0 128.000000 128.000000"
 preserveAspectRatio="xMidYMid meet">

<g transform="translate(0.000000,128.000000) scale(0.100000,-0.100000)"
fill="#000000" stroke="none">
<path d="M656 1100 c-61 -19 -93 -73 -131 -221 -45 -172 -104 -200 -292 -136
-40 14 -74 22 -77 19 -4 -3 -6 -27 -6 -53 0 -100 60 -228 135 -284 40 -31 124
-65 161 -65 25 0 24 -1 -20 -56 -26 -31 -46 -60 -46 -65 0 -17 55 -24 180 -24
115 0 130 2 182 27 73 34 142 103 176 176 24 50 27 70 27 157 0 95 -2 104 -37
179 -21 43 -38 84 -38 91 0 29 45 66 120 96 44 18 77 36 72 41 -14 14 -296
116 -337 121 -22 3 -53 2 -69 -3z"/>
</g>
</svg>
